<?xml version="1.0" standalone="no"?>
<!DOCTYPE svg PUBLIC "-//W3C//DTD SVG 20010904//EN"
 "http://www.w3.org/TR/2001/REC-SVG-20010904/DTD/svg10.dtd">
<svg version="1.0" xmlns="http://www.w3.org/2000/svg"
 width="48.000000pt" height="48.000000pt" viewBox="0 0 48.000000 48.000000"
 preserveAspectRatio="xMidYMid meet">

<g transform="translate(0.000000,48.000000) scale(0.100000,-0.100000)"
fill="#000000" stroke="none">
<path d="M160 447 c-19 -31 -37 -124 -26 -134 3 -4 6 5 6 18 0 45 19 57 94 61
l70 3 23 -40 23 -40 0 33 c0 82 -49 133 -126 130 -40 -1 -49 -6 -64 -31z"/>
<path d="M188 333 c7 -3 16 -2 19 1 4 3 -2 6 -13 5 -11 0 -14 -3 -6 -6z"/>
<path d="M180 290 c0 -5 5 -10 10 -10 6 0 10 5 10 10 0 6 -4 10 -10 10 -5 0
-10 -4 -10 -10z"/>
<path d="M280 290 c0 -5 5 -10 11 -10 5 0 7 5 4 10 -3 6 -8 10 -11 10 -2 0 -4
-4 -4 -10z"/>
<path d="M140 229 c1 -27 68 -89 98 -89 29 0 102 63 102 89 0 9 -5 8 -16 -4
-15 -14 -18 -14 -33 0 -23 20 -80 19 -104 -2 -18 -17 -19 -17 -33 2 -10 13
-14 15 -14 4z m138 -26 c3 -21 -1 -23 -36 -23 -25 0 -42 5 -45 14 -8 21 15 37
48 34 22 -2 31 -9 33 -25z"/>
<path d="M223 208 c2 -7 10 -13 17 -13 7 0 15 6 18 13 2 7 -5 12 -18 12 -13 0
-20 -5 -17 -12z"/>
</g>
</svg>
